<?xml version="1.0" encoding="utf-8"?>
<!-- Generator: Adobe Illustrator 22.0.0, SVG Export Plug-In . SVG Version: 6.00 Build 0)  -->
<svg version="1.1" id="Calque_1" xmlns="http://www.w3.org/2000/svg" xmlns:xlink="http://www.w3.org/1999/xlink" x="0px" y="0px"
	 viewBox="0 0 400 400" style="enable-background:new 0 0 400 400;" xml:space="preserve">
<style type="text/css">
	.st0{fill:#FFFFFF;}
</style>
<g>
	<path class="st0" d="M197.2,336.1c0,7.1,0,12.9,0,19.8c-30,0.5-57-7.6-81.8-22.9c-34.2-21.2-57.4-51.2-68.8-89.8
		c-22.9-77.1,16.7-157.3,88-188.6c0.6,48.6,1.2,96.8,1.9,145.9c29.3,0,57.5,0,86.3,0c0,7,0,13.1,0,19.7c-35.6,0-70.7,0-107.2,0
		c0-43.2,0-86,0-129.4c-36.7,19.9-61.7,81.7-53.4,129.4c5.7,33.1,21,60.8,46.5,82.8C133.9,324.6,163.5,335,197.2,336.1z"/>
	<path class="st0" d="M281.9,330.7c-3-6.3-5.6-11.9-8.2-17.3c61.8-45.2,72.1-115,50.4-166.8c-12.8-30.6-34-53.8-63.4-69.3
		c-29.4-15.6-60.7-18.6-93.8-12.4c0-6.9,0-13.3,0-19.7c57.2-14.8,141.4,12,175.5,92.6C375.5,215.8,338.7,297,281.9,330.7z"/>
	<path class="st0" d="M233.5,353.4c-14.5-34.4-28.7-68.4-43.4-103.2c3.1-0.4,5.5-0.8,7.9-0.9c7.9-0.1,15.9,0.3,23.7-0.3
		c20.2-1.3,35.6-17.5,36.3-37.6c0.8-20.7-13.6-38.2-34-40.6c-7.8-0.9-15.8-0.6-23.7-0.7c-14.5-0.1-29,0-44.5,0
		c-2.2-6.5-4.4-12.9-6.8-19.9c2.4-0.3,4-0.6,5.5-0.6c21.4,0,42.9-0.3,64.3,0.1c30.2,0.5,54,21.3,59,51.2
		c5.1,30.6-15.7,60.9-46.2,67.4c-3.5,0.7-7,1.4-11.3,2.3c11.7,27.7,23.1,54.9,34.9,82.8C247.7,353.4,241.2,353.4,233.5,353.4z"/>
</g>
</svg>
